<svg width="284" height="78" viewBox="0 0 284 78" fill="none" xmlns="http://www.w3.org/2000/svg">
<rect y="18" width="46" height="46" rx="23" fill="white"/>
<circle cx="29.1333" cy="34.8672" r="6.13333" fill="black"/>
<path d="M56.864 17.304H77.024C80.2667 17.304 82.912 17.7733 84.96 18.712C87.008 19.6507 88.5867 20.824 89.696 22.232C90.8053 23.64 91.552 25.176 91.936 26.84C92.3627 28.504 92.576 30.04 92.576 31.448C92.576 32.856 92.3627 34.392 91.936 36.056C91.552 37.6773 90.8053 39.192 89.696 40.6C88.5867 42.008 87.008 43.1813 84.96 44.12C82.912 45.016 80.2667 45.464 77.024 45.464H64.864V63H56.864V17.304ZM64.864 38.936H76.576C77.472 38.936 78.3893 38.808 79.328 38.552C80.2667 38.296 81.12 37.8907 81.888 37.336C82.6987 36.7387 83.3387 35.9707 83.808 35.032C84.32 34.0507 84.576 32.8347 84.576 31.384C84.576 29.8907 84.3627 28.6533 83.936 27.672C83.5093 26.6907 82.9333 25.9227 82.208 25.368C81.4827 24.7707 80.6507 24.3653 79.712 24.152C78.7733 23.9387 77.7707 23.832 76.704 23.832H64.864V38.936ZM123.68 55.64C123.68 56.536 123.786 57.176 124 57.56C124.255 57.944 124.725 58.136 125.408 58.136C125.621 58.136 125.877 58.136 126.175 58.136C126.474 58.136 126.816 58.0933 127.2 58.008V63.064C126.944 63.1493 126.602 63.2347 126.175 63.32C125.791 63.448 125.386 63.5547 124.959 63.64C124.533 63.7253 124.106 63.7893 123.68 63.832C123.253 63.8747 122.89 63.896 122.591 63.896C121.098 63.896 119.861 63.5973 118.879 63C117.898 62.4027 117.258 61.3573 116.959 59.864C115.509 61.272 113.717 62.296 111.583 62.936C109.493 63.576 107.466 63.896 105.503 63.896C104.01 63.896 102.581 63.6827 101.215 63.256C99.8502 62.872 98.6342 62.296 97.5675 61.528C96.5435 60.7173 95.7115 59.7147 95.0715 58.52C94.4742 57.2827 94.1755 55.8533 94.1755 54.232C94.1755 52.184 94.5382 50.52 95.2635 49.24C96.0315 47.96 97.0128 46.9573 98.2075 46.232C99.4448 45.5067 100.81 44.9947 102.303 44.696C103.839 44.3547 105.375 44.0987 106.911 43.928C108.234 43.672 109.493 43.5013 110.688 43.416C111.882 43.288 112.927 43.096 113.823 42.84C114.762 42.584 115.488 42.2 116 41.688C116.554 41.1333 116.831 40.3227 116.831 39.256C116.831 38.3173 116.597 37.5493 116.128 36.952C115.701 36.3547 115.146 35.9067 114.463 35.608C113.823 35.2667 113.098 35.0533 112.288 34.968C111.477 34.84 110.709 34.776 109.983 34.776C107.935 34.776 106.25 35.2027 104.927 36.056C103.605 36.9093 102.858 38.232 102.687 40.024H95.3915C95.5195 37.8907 96.0315 36.12 96.9275 34.712C97.8235 33.304 98.9542 32.1733 100.319 31.32C101.727 30.4667 103.306 29.8693 105.055 29.528C106.805 29.1867 108.597 29.016 110.431 29.016C112.053 29.016 113.653 29.1867 115.232 29.528C116.81 29.8693 118.218 30.424 119.455 31.192C120.735 31.96 121.759 32.9627 122.528 34.2C123.296 35.3947 123.68 36.8667 123.68 38.616V55.64ZM116.383 46.424C115.274 47.1493 113.909 47.5973 112.288 47.768C110.666 47.896 109.045 48.1093 107.423 48.408C106.655 48.536 105.909 48.728 105.183 48.984C104.458 49.1973 103.818 49.5173 103.263 49.944C102.709 50.328 102.261 50.8613 101.919 51.544C101.621 52.184 101.471 52.9733 101.471 53.912C101.471 54.7227 101.706 55.4053 102.175 55.96C102.645 56.5147 103.199 56.9627 103.839 57.304C104.522 57.6027 105.247 57.816 106.015 57.944C106.826 58.072 107.551 58.136 108.191 58.136C109.002 58.136 109.877 58.0293 110.816 57.816C111.754 57.6027 112.629 57.24 113.439 56.728C114.293 56.216 114.997 55.576 115.552 54.808C116.106 53.9973 116.383 53.016 116.383 51.864V46.424ZM159.562 61.272C159.562 66.264 158.154 69.976 155.338 72.408C152.565 74.8827 148.554 76.12 143.306 76.12C141.642 76.12 139.957 75.9493 138.25 75.608C136.586 75.2667 135.05 74.6907 133.642 73.88C132.277 73.0693 131.125 72.0027 130.186 70.68C129.247 69.3573 128.693 67.736 128.522 65.816H135.818C136.031 66.84 136.394 67.672 136.906 68.312C137.418 68.952 138.015 69.4427 138.698 69.784C139.423 70.168 140.213 70.4027 141.066 70.488C141.919 70.616 142.815 70.68 143.754 70.68C146.698 70.68 148.853 69.9547 150.218 68.504C151.583 67.0533 152.266 64.9627 152.266 62.232V57.176H152.138C151.114 59.0107 149.706 60.44 147.914 61.464C146.165 62.488 144.266 63 142.218 63C139.573 63 137.311 62.552 135.434 61.656C133.599 60.7173 132.063 59.4587 130.826 57.88C129.631 56.2587 128.757 54.4027 128.202 52.312C127.647 50.2213 127.37 47.9813 127.37 45.592C127.37 43.3733 127.711 41.2613 128.394 39.256C129.077 37.2507 130.058 35.5013 131.338 34.008C132.618 32.472 134.175 31.256 136.01 30.36C137.887 29.464 139.999 29.016 142.346 29.016C144.437 29.016 146.357 29.464 148.106 30.36C149.855 31.2133 151.199 32.5787 152.138 34.456H152.266V29.912H159.562V61.272ZM143.37 57.24C144.991 57.24 146.357 56.92 147.466 56.28C148.618 55.5973 149.535 54.7227 150.218 53.656C150.943 52.5467 151.455 51.3093 151.754 49.944C152.095 48.536 152.266 47.128 152.266 45.72C152.266 44.312 152.095 42.9467 151.754 41.624C151.413 40.3013 150.879 39.128 150.154 38.104C149.471 37.08 148.554 36.2693 147.402 35.672C146.293 35.0747 144.949 34.776 143.37 34.776C141.749 34.776 140.383 35.1173 139.274 35.8C138.165 36.4827 137.269 37.3787 136.586 38.488C135.903 39.5547 135.413 40.792 135.114 42.2C134.815 43.5653 134.666 44.9307 134.666 46.296C134.666 47.6613 134.837 49.0053 135.178 50.328C135.519 51.608 136.031 52.76 136.714 53.784C137.439 54.808 138.335 55.64 139.402 56.28C140.511 56.92 141.834 57.24 143.37 57.24ZM179.516 63.896C176.87 63.896 174.502 63.4693 172.411 62.616C170.364 61.72 168.614 60.504 167.163 58.968C165.755 57.432 164.667 55.5973 163.899 53.464C163.174 51.3307 162.811 48.984 162.811 46.424C162.811 43.9067 163.174 41.5813 163.899 39.448C164.667 37.3147 165.755 35.48 167.163 33.944C168.614 32.408 170.364 31.2133 172.411 30.36C174.502 29.464 176.87 29.016 179.516 29.016C182.161 29.016 184.508 29.464 186.556 30.36C188.646 31.2133 190.396 32.408 191.804 33.944C193.254 35.48 194.342 37.3147 195.068 39.448C195.836 41.5813 196.22 43.9067 196.22 46.424C196.22 48.984 195.836 51.3307 195.068 53.464C194.342 55.5973 193.254 57.432 191.804 58.968C190.396 60.504 188.646 61.72 186.556 62.616C184.508 63.4693 182.161 63.896 179.516 63.896ZM179.516 58.136C181.137 58.136 182.545 57.7947 183.74 57.112C184.934 56.4293 185.916 55.5333 186.684 54.424C187.452 53.3147 188.006 52.0773 188.348 50.712C188.732 49.304 188.924 47.8747 188.924 46.424C188.924 45.016 188.732 43.608 188.348 42.2C188.006 40.792 187.452 39.5547 186.684 38.488C185.916 37.3787 184.934 36.4827 183.74 35.8C182.545 35.1173 181.137 34.776 179.516 34.776C177.894 34.776 176.486 35.1173 175.292 35.8C174.097 36.4827 173.116 37.3787 172.347 38.488C171.58 39.5547 171.004 40.792 170.62 42.2C170.278 43.608 170.108 45.016 170.108 46.424C170.108 47.8747 170.278 49.304 170.62 50.712C171.004 52.0773 171.58 53.3147 172.347 54.424C173.116 55.5333 174.097 56.4293 175.292 57.112C176.486 57.7947 177.894 58.136 179.516 58.136ZM230.893 63H223.981V58.52H223.853C222.872 60.44 221.442 61.8267 219.565 62.68C217.688 63.4907 215.704 63.896 213.613 63.896C211.01 63.896 208.728 63.448 206.765 62.552C204.845 61.6133 203.245 60.3547 201.965 58.776C200.685 57.1973 199.725 55.3413 199.085 53.208C198.445 51.032 198.125 48.7067 198.125 46.232C198.125 43.2453 198.53 40.664 199.341 38.488C200.152 36.312 201.218 34.52 202.541 33.112C203.906 31.704 205.442 30.68 207.149 30.04C208.898 29.3573 210.669 29.016 212.461 29.016C213.485 29.016 214.53 29.1227 215.597 29.336C216.664 29.5067 217.688 29.8053 218.669 30.232C219.65 30.6587 220.546 31.2133 221.357 31.896C222.21 32.536 222.914 33.304 223.469 34.2H223.597V17.304H230.893V63ZM205.421 46.808C205.421 48.216 205.592 49.6027 205.933 50.968C206.317 52.3333 206.872 53.5493 207.597 54.616C208.365 55.6827 209.325 56.536 210.477 57.176C211.629 57.816 212.994 58.136 214.573 58.136C216.194 58.136 217.581 57.7947 218.733 57.112C219.928 56.4293 220.888 55.5333 221.613 54.424C222.381 53.3147 222.936 52.0773 223.277 50.712C223.661 49.304 223.853 47.8747 223.853 46.424C223.853 42.7547 223.021 39.896 221.357 37.848C219.736 35.8 217.517 34.776 214.701 34.776C212.994 34.776 211.544 35.1387 210.349 35.864C209.197 36.5467 208.237 37.464 207.469 38.616C206.744 39.7253 206.21 41.0053 205.869 42.456C205.57 43.864 205.421 45.3147 205.421 46.808ZM236.482 17.304H243.778V24.216H236.482V17.304ZM236.482 29.912H243.778V63H236.482V29.912ZM264.336 63.896C261.69 63.896 259.322 63.4693 257.231 62.616C255.183 61.72 253.434 60.504 251.983 58.968C250.575 57.432 249.487 55.5973 248.719 53.464C247.994 51.3307 247.631 48.984 247.631 46.424C247.631 43.9067 247.994 41.5813 248.719 39.448C249.487 37.3147 250.575 35.48 251.983 33.944C253.434 32.408 255.183 31.2133 257.231 30.36C259.322 29.464 261.69 29.016 264.336 29.016C266.981 29.016 269.328 29.464 271.375 30.36C273.466 31.2133 275.216 32.408 276.624 33.944C278.074 35.48 279.162 37.3147 279.888 39.448C280.656 41.5813 281.04 43.9067 281.04 46.424C281.04 48.984 280.656 51.3307 279.888 53.464C279.162 55.5973 278.074 57.432 276.624 58.968C275.216 60.504 273.466 61.72 271.375 62.616C269.328 63.4693 266.981 63.896 264.336 63.896ZM264.336 58.136C265.957 58.136 267.365 57.7947 268.559 57.112C269.754 56.4293 270.736 55.5333 271.503 54.424C272.272 53.3147 272.826 52.0773 273.168 50.712C273.552 49.304 273.744 47.8747 273.744 46.424C273.744 45.016 273.552 43.608 273.168 42.2C272.826 40.792 272.272 39.5547 271.503 38.488C270.736 37.3787 269.754 36.4827 268.559 35.8C267.365 35.1173 265.957 34.776 264.336 34.776C262.714 34.776 261.306 35.1173 260.111 35.8C258.917 36.4827 257.935 37.3787 257.167 38.488C256.399 39.5547 255.823 40.792 255.439 42.2C255.098 43.608 254.927 45.016 254.927 46.424C254.927 47.8747 255.098 49.304 255.439 50.712C255.823 52.0773 256.399 53.3147 257.167 54.424C257.935 55.5333 258.917 56.4293 260.111 57.112C261.306 57.7947 262.714 58.136 264.336 58.136Z" fill="white"/>
</svg>
